<svg xmlns="http://www.w3.org/2000/svg" viewBox="0 0 820 540" role="img" aria-labelledby="title desc">
  <title id="title">Chat with tools using search</title>
  <desc id="desc">The model emits a search tool call, receives tool results, appends them to the message history, and then continues with better evidence.</desc>
  <defs>
    <marker id="arrow" markerWidth="12" markerHeight="12" refX="10" refY="6" orient="auto" markerUnits="strokeWidth">
      <path d="M0,0 L12,6 L0,12 z" fill="#374151" />
    </marker>
    <style>
      .panel { fill: #eef3ff; stroke: #d7e5ff; stroke-width: 2.2; }
      .ink { fill: #154c79; font: 700 24px "Bradley Hand", "Marker Felt", "Comic Sans MS", cursive; }
      .boxtext { fill: #1f2937; font: 700 20px "Bradley Hand", "Marker Felt", "Comic Sans MS", cursive; text-anchor: middle; }
      .subtext { fill: #59636f; font: 700 14px "Bradley Hand", "Marker Felt", "Comic Sans MS", cursive; text-anchor: middle; }
      .arrow { fill: none; stroke: #374151; stroke-width: 3.4; stroke-linecap: round; stroke-linejoin: round; marker-end: url(#arrow); }
      .edgelabel { fill: #b45309; font: 700 16px "Bradley Hand", "Marker Felt", "Comic Sans MS", cursive; }
    </style>
  </defs>

  <rect class="panel" x="18" y="18" width="784" height="504" rx="28" />
  <text class="ink" x="56" y="58">A tool call inserts fresh evidence into the conversation</text>

  <rect x="176" y="84" width="336" height="72" rx="16" fill="#a5d8ff" stroke="#4a9eed" stroke-width="3" />
  <text class="boxtext" x="344" y="126">User asks a question</text>

  <rect x="176" y="188" width="336" height="72" rx="16" fill="#ffffff" stroke="#94a3b8" stroke-width="3" />
  <text class="boxtext" x="344" y="230">LM emits search(...)</text>

  <rect x="592" y="188" width="154" height="74" rx="16" fill="#fff3bf" stroke="#f59e0b" stroke-width="3" />
  <text class="boxtext" x="669" y="231">Search tool</text>

  <rect x="570" y="302" width="198" height="126" rx="18" fill="#ffd8a8" stroke="#f59e0b" stroke-width="3" />
  <text class="boxtext" x="669" y="350">Result 1</text>
  <text class="boxtext" x="669" y="378">Result 2</text>

  <rect x="176" y="304" width="336" height="82" rx="18" fill="#b2f2bb" stroke="#22c55e" stroke-width="3" />
  <text class="boxtext" x="344" y="342">Tool results appended</text>
  <text class="subtext" x="344" y="365">as a new message</text>

  <rect x="176" y="426" width="336" height="68" rx="16" fill="#d3f9d8" stroke="#22c55e" stroke-width="3" />
  <text class="boxtext" x="344" y="468">LM continues with better evidence</text>

  <path class="arrow" d="M344 156 L344 188" />
  <path class="arrow" d="M512 224 L592 224" />
  <path class="arrow" d="M669 262 L669 302" />
  <path class="arrow" d="M570 366 L512 346" />
  <path class="arrow" d="M344 386 L344 426" />

  <text class="edgelabel" x="530" y="212">tool call</text>
  <text class="edgelabel" x="528" y="344">tool_result</text>
</svg>
