<svg xmlns="http://www.w3.org/2000/svg" viewBox="0 0 820 540" role="img" aria-labelledby="title desc">
  <title id="title">Chat with tools using search</title>
  <desc id="desc">The model emits a search tool call, receives R-related tool results, appends them to the message history, and then continues with better evidence.</desc>
  <defs>
    <marker id="arrow" markerWidth="7.5" markerHeight="7.5" refX="6.2" refY="3.75" orient="auto" markerUnits="strokeWidth">
      <path d="M0,0 L7.5,3.75 L0,7.5 z" fill="#374151" />
    </marker>
    <style>
      .panel { fill: #eef3ff; stroke: #d7e5ff; stroke-width: 2.2; }
      .ink { fill: #154c79; font: 700 24px "Bradley Hand", "Marker Felt", "Comic Sans MS", cursive; }
      .boxtext { fill: #1f2937; font: 700 19px "Bradley Hand", "Marker Felt", "Comic Sans MS", cursive; text-anchor: middle; }
      .subtext { fill: #59636f; font: 700 14px "Bradley Hand", "Marker Felt", "Comic Sans MS", cursive; text-anchor: middle; }
      .arrow { fill: none; stroke: #374151; stroke-width: 2; stroke-linecap: round; stroke-linejoin: round; marker-end: url(#arrow); }
      .edgelabel { fill: #b45309; font: 700 16px "Bradley Hand", "Marker Felt", "Comic Sans MS", cursive; }
    </style>
  </defs>

  <rect class="panel" x="18" y="18" width="784" height="504" rx="28" />
  <text class="ink" x="56" y="58">Search adds context on demand</text>

  <rect x="92" y="84" width="382" height="68" rx="16" fill="#a5d8ff" stroke="#4a9eed" stroke-width="3" />
  <text class="boxtext" x="283" y="124">User asks about random slopes in R</text>

  <rect x="92" y="182" width="382" height="74" rx="16" fill="#ffffff" stroke="#94a3b8" stroke-width="3" />
  <text class="boxtext" x="283" y="216">LM emits</text>
  <text class="boxtext" x="283" y="240">`search("R mixed model random slopes")`</text>

  <rect x="576" y="184" width="160" height="70" rx="16" fill="#fff3bf" stroke="#f59e0b" stroke-width="3" />
  <text class="boxtext" x="656" y="226">Search tool</text>

  <rect x="560" y="300" width="196" height="104" rx="18" fill="#ffd8a8" stroke="#f59e0b" stroke-width="3" />
  <text class="boxtext" x="658" y="334">`lme4::lmer()`</text>
  <text class="boxtext" x="658" y="362">`nlme::lme()`</text>
  <text class="subtext" x="658" y="386">package docs</text>

  <rect x="92" y="314" width="382" height="82" rx="18" fill="#b2f2bb" stroke="#22c55e" stroke-width="3" />
  <text class="boxtext" x="283" y="350">Tool results appended</text>
  <text class="subtext" x="283" y="374">as a new message</text>

  <rect x="92" y="432" width="382" height="68" rx="16" fill="#d3f9d8" stroke="#22c55e" stroke-width="3" />
  <text class="boxtext" x="283" y="472">LM continues with better evidence</text>

  <path class="arrow" d="M283 152 L283 182" />
  <path class="arrow" d="M474 219 L576 219" />
  <path class="arrow" d="M656 254 L656 300" />
  <path class="arrow" d="M560 355 L474 355" />
  <path class="arrow" d="M283 396 L283 432" />

  <text class="edgelabel" x="504" y="205">tool call</text>
  <text class="edgelabel" x="494" y="345">tool_result</text>
</svg>
